<?xml version="1.0" encoding="UTF-8" standalone="no"?>
<!DOCTYPE svg PUBLIC "-//W3C//DTD SVG 1.1//EN"
 "http://www.w3.org/Graphics/SVG/1.1/DTD/svg11.dtd">
<!-- Generated by graphviz version 2.36.0 (20140111.2315)
 -->
<!-- Title: callgraph Pages: 1 -->
<svg width="1856pt" height="1206pt"
 viewBox="0.00 0.00 1856.00 1206.00" xmlns="http://www.w3.org/2000/svg" xmlns:xlink="http://www.w3.org/1999/xlink">
<g id="graph0" class="graph" transform="scale(1 1) rotate(0) translate(4 1202)">
<title>callgraph</title>
<polygon fill="white" stroke="none" points="-4,4 -4,-1202 1852,-1202 1852,4 -4,4"/>
<!-- __cpufreq_get -->
<g id="node1" class="node"><title>__cpufreq_get</title>
<ellipse fill="none" stroke="black" cx="943" cy="-272" rx="61.99" ry="18"/>
<text text-anchor="middle" x="943" y="-268.3" font-family="Times,serif" font-size="14.00">__cpufreq_get</text>
</g>
<!-- cpufreq_out_of_sync -->
<g id="node2" class="node"><title>cpufreq_out_of_sync</title>
<ellipse fill="none" stroke="black" cx="1197" cy="-272" rx="85.2851" ry="18"/>
<text text-anchor="middle" x="1197" y="-268.3" font-family="Times,serif" font-size="14.00">cpufreq_out_of_sync</text>
</g>
<!-- __cpufreq_get&#45;&gt;cpufreq_out_of_sync -->
<g id="edge1" class="edge"><title>__cpufreq_get&#45;&gt;cpufreq_out_of_sync</title>
<path fill="none" stroke="black" d="M1005,-272C1033.92,-272 1069.12,-272 1101.4,-272"/>
<polygon fill="black" stroke="black" points="1101.76,-275.5 1111.76,-272 1101.76,-268.5 1101.76,-275.5"/>
</g>
<!-- cpufreq_freq_transition_end -->
<g id="node16" class="node"><title>cpufreq_freq_transition_end</title>
<ellipse fill="none" stroke="black" cx="1478" cy="-272" rx="110.48" ry="18"/>
<text text-anchor="middle" x="1478" y="-268.3" font-family="Times,serif" font-size="14.00">cpufreq_freq_transition_end</text>
</g>
<!-- cpufreq_out_of_sync&#45;&gt;cpufreq_freq_transition_end -->
<g id="edge11" class="edge"><title>cpufreq_out_of_sync&#45;&gt;cpufreq_freq_transition_end</title>
<path fill="none" stroke="black" d="M1282.47,-272C1305.94,-272 1331.88,-272 1356.97,-272"/>
<polygon fill="black" stroke="black" points="1357.28,-275.5 1367.28,-272 1357.28,-268.5 1357.28,-275.5"/>
</g>
<!-- cpufreq_freq_transition_begin -->
<g id="node17" class="node"><title>cpufreq_freq_transition_begin</title>
<ellipse fill="none" stroke="black" cx="1478" cy="-326" rx="117.779" ry="18"/>
<text text-anchor="middle" x="1478" y="-322.3" font-family="Times,serif" font-size="14.00">cpufreq_freq_transition_begin</text>
</g>
<!-- cpufreq_out_of_sync&#45;&gt;cpufreq_freq_transition_begin -->
<g id="edge12" class="edge"><title>cpufreq_out_of_sync&#45;&gt;cpufreq_freq_transition_begin</title>
<path fill="none" stroke="black" d="M1260.27,-284.051C1299.82,-291.708 1351.48,-301.706 1394.44,-310.021"/>
<polygon fill="black" stroke="black" points="1393.83,-313.467 1404.31,-311.931 1395.16,-306.595 1393.83,-313.467"/>
</g>
<!-- cpufreq_quick_get_max -->
<g id="node3" class="node"><title>cpufreq_quick_get_max</title>
<ellipse fill="none" stroke="black" cx="943" cy="-18" rx="96.6831" ry="18"/>
<text text-anchor="middle" x="943" y="-14.3" font-family="Times,serif" font-size="14.00">cpufreq_quick_get_max</text>
</g>
<!-- cpufreq_cpu_get -->
<g id="node4" class="node"><title>cpufreq_cpu_get</title>
<ellipse fill="none" stroke="black" cx="1197" cy="-110" rx="69.5877" ry="18"/>
<text text-anchor="middle" x="1197" y="-106.3" font-family="Times,serif" font-size="14.00">cpufreq_cpu_get</text>
</g>
<!-- cpufreq_quick_get_max&#45;&gt;cpufreq_cpu_get -->
<g id="edge2" class="edge"><title>cpufreq_quick_get_max&#45;&gt;cpufreq_cpu_get</title>
<path fill="none" stroke="black" d="M996.133,-33.074C1012.8,-38.1519 1031.27,-44.0475 1048,-50 1082.97,-62.4415 1121.84,-78.2779 1150.96,-90.5565"/>
<polygon fill="black" stroke="black" points="1149.87,-93.8964 1160.45,-94.5742 1152.6,-87.4509 1149.87,-93.8964"/>
</g>
<!-- cpufreq_get_policy -->
<g id="node5" class="node"><title>cpufreq_get_policy</title>
<ellipse fill="none" stroke="black" cx="943" cy="-164" rx="79.0865" ry="18"/>
<text text-anchor="middle" x="943" y="-160.3" font-family="Times,serif" font-size="14.00">cpufreq_get_policy</text>
</g>
<!-- cpufreq_get_policy&#45;&gt;cpufreq_cpu_get -->
<g id="edge3" class="edge"><title>cpufreq_get_policy&#45;&gt;cpufreq_cpu_get</title>
<path fill="none" stroke="black" d="M1001.18,-151.747C1040.41,-143.341 1092.47,-132.186 1132.9,-123.521"/>
<polygon fill="black" stroke="black" points="1133.87,-126.893 1142.92,-121.375 1132.4,-120.048 1133.87,-126.893"/>
</g>
<!-- store_scaling_min_freq -->
<g id="node6" class="node"><title>store_scaling_min_freq</title>
<ellipse fill="none" stroke="black" cx="943" cy="-580" rx="94.4839" ry="18"/>
<text text-anchor="middle" x="943" y="-576.3" font-family="Times,serif" font-size="14.00">store_scaling_min_freq</text>
</g>
<!-- cpufreq_set_policy -->
<g id="node7" class="node"><title>cpufreq_set_policy</title>
<ellipse fill="none" stroke="black" cx="1197" cy="-580" rx="77.9862" ry="18"/>
<text text-anchor="middle" x="1197" y="-576.3" font-family="Times,serif" font-size="14.00">cpufreq_set_policy</text>
</g>
<!-- store_scaling_min_freq&#45;&gt;cpufreq_set_policy -->
<g id="edge4" class="edge"><title>store_scaling_min_freq&#45;&gt;cpufreq_set_policy</title>
<path fill="none" stroke="black" d="M1037.48,-580C1060.78,-580 1085.68,-580 1108.68,-580"/>
<polygon fill="black" stroke="black" points="1108.75,-583.5 1118.75,-580 1108.75,-576.5 1108.75,-583.5"/>
</g>
<!-- __cpufreq_governor -->
<g id="node15" class="node"><title>__cpufreq_governor</title>
<ellipse fill="none" stroke="black" cx="1478" cy="-810" rx="82.5854" ry="18"/>
<text text-anchor="middle" x="1478" y="-806.3" font-family="Times,serif" font-size="14.00">__cpufreq_governor</text>
</g>
<!-- cpufreq_set_policy&#45;&gt;__cpufreq_governor -->
<g id="edge52" class="edge"><title>cpufreq_set_policy&#45;&gt;__cpufreq_governor</title>
<path fill="none" stroke="black" d="M1221.47,-597.409C1244.34,-614.52 1279.96,-641.548 1310,-666 1360.09,-706.771 1416.69,-756.342 1449.46,-785.409"/>
<polygon fill="black" stroke="black" points="1447.46,-788.314 1457.26,-792.339 1452.11,-783.081 1447.46,-788.314"/>
</g>
<!-- cpufreq_get_global_kobject -->
<g id="node8" class="node"><title>cpufreq_get_global_kobject</title>
<ellipse fill="none" stroke="black" cx="1197" cy="-1126" rx="109.381" ry="18"/>
<text text-anchor="middle" x="1197" y="-1122.3" font-family="Times,serif" font-size="14.00">cpufreq_get_global_kobject</text>
</g>
<!-- cpufreq_get_global_kobject.part.4 -->
<g id="node9" class="node"><title>cpufreq_get_global_kobject.part.4</title>
<ellipse fill="none" stroke="black" cx="1478" cy="-1153" rx="131.877" ry="18"/>
<text text-anchor="middle" x="1478" y="-1149.3" font-family="Times,serif" font-size="14.00">cpufreq_get_global_kobject.part.4</text>
</g>
<!-- cpufreq_get_global_kobject&#45;&gt;cpufreq_get_global_kobject.part.4 -->
<g id="edge5" class="edge"><title>cpufreq_get_global_kobject&#45;&gt;cpufreq_get_global_kobject.part.4</title>
<path fill="none" stroke="black" d="M1291.68,-1135.07C1313.47,-1137.17 1336.93,-1139.45 1359.6,-1141.64"/>
<polygon fill="black" stroke="black" points="1359.31,-1145.13 1369.6,-1142.61 1359.99,-1138.16 1359.31,-1145.13"/>
</g>
<!-- cpufreq_init_policy -->
<g id="node10" class="node"><title>cpufreq_init_policy</title>
<ellipse fill="none" stroke="black" cx="943" cy="-472" rx="79.8859" ry="18"/>
<text text-anchor="middle" x="943" y="-468.3" font-family="Times,serif" font-size="14.00">cpufreq_init_policy</text>
</g>
<!-- cpufreq_init_policy&#45;&gt;cpufreq_set_policy -->
<g id="edge8" class="edge"><title>cpufreq_init_policy&#45;&gt;cpufreq_set_policy</title>
<path fill="none" stroke="black" d="M1010.72,-481.645C1023.86,-485.594 1036.98,-491.16 1048,-499 1071.5,-515.722 1060.35,-536.484 1084,-553 1093.93,-559.934 1105.43,-565.099 1117.19,-568.943"/>
<polygon fill="black" stroke="black" points="1116.53,-572.397 1127.11,-571.871 1118.51,-565.683 1116.53,-572.397"/>
</g>
<!-- cpufreq_parse_governor -->
<g id="node11" class="node"><title>cpufreq_parse_governor</title>
<ellipse fill="none" stroke="black" cx="1197" cy="-472" rx="96.6831" ry="18"/>
<text text-anchor="middle" x="1197" y="-468.3" font-family="Times,serif" font-size="14.00">cpufreq_parse_governor</text>
</g>
<!-- cpufreq_init_policy&#45;&gt;cpufreq_parse_governor -->
<g id="edge6" class="edge"><title>cpufreq_init_policy&#45;&gt;cpufreq_parse_governor</title>
<path fill="none" stroke="black" d="M1023.04,-472C1044.2,-472 1067.41,-472 1089.77,-472"/>
<polygon fill="black" stroke="black" points="1089.98,-475.5 1099.98,-472 1089.98,-468.5 1089.98,-475.5"/>
</g>
<!-- find_governor -->
<g id="node12" class="node"><title>find_governor</title>
<ellipse fill="none" stroke="black" cx="1478" cy="-472" rx="61.1893" ry="18"/>
<text text-anchor="middle" x="1478" y="-468.3" font-family="Times,serif" font-size="14.00">find_governor</text>
</g>
<!-- cpufreq_init_policy&#45;&gt;find_governor -->
<g id="edge7" class="edge"><title>cpufreq_init_policy&#45;&gt;find_governor</title>
<path fill="none" stroke="black" d="M998.503,-458.986C1024.26,-453.481 1055.54,-447.719 1084,-445 1183.99,-435.446 1209.88,-436.959 1310,-445 1345.79,-447.875 1385.49,-454.163 1417.2,-459.947"/>
<polygon fill="black" stroke="black" points="1416.73,-463.419 1427.2,-461.803 1418,-456.537 1416.73,-463.419"/>
</g>
<!-- cpufreq_parse_governor&#45;&gt;find_governor -->
<g id="edge17" class="edge"><title>cpufreq_parse_governor&#45;&gt;find_governor</title>
<path fill="none" stroke="black" d="M1294.02,-472C1330.87,-472 1372.23,-472 1406.28,-472"/>
<polygon fill="black" stroke="black" points="1406.61,-475.5 1416.61,-472 1406.61,-468.5 1406.61,-475.5"/>
</g>
<!-- cpufreq_resume -->
<g id="node13" class="node"><title>cpufreq_resume</title>
<ellipse fill="none" stroke="black" cx="1197" cy="-910" rx="67.6881" ry="18"/>
<text text-anchor="middle" x="1197" y="-906.3" font-family="Times,serif" font-size="14.00">cpufreq_resume</text>
</g>
<!-- first_policy -->
<g id="node14" class="node"><title>first_policy</title>
<ellipse fill="none" stroke="black" cx="1478" cy="-991" rx="51.1914" ry="18"/>
<text text-anchor="middle" x="1478" y="-987.3" font-family="Times,serif" font-size="14.00">first_policy</text>
</g>
<!-- cpufreq_resume&#45;&gt;first_policy -->
<g id="edge9" class="edge"><title>cpufreq_resume&#45;&gt;first_policy</title>
<path fill="none" stroke="black" d="M1249.23,-921.484C1268.38,-926.004 1290.27,-931.44 1310,-937 1351.38,-948.658 1397.86,-963.866 1431.27,-975.171"/>
<polygon fill="black" stroke="black" points="1430.16,-978.493 1440.76,-978.398 1432.41,-971.865 1430.16,-978.493"/>
</g>
<!-- cpufreq_resume&#45;&gt;__cpufreq_governor -->
<g id="edge10" class="edge"><title>cpufreq_resume&#45;&gt;__cpufreq_governor</title>
<path fill="none" stroke="black" d="M1251.24,-899.176C1270.02,-894.833 1291.14,-889.342 1310,-883 1353.54,-868.362 1401.4,-846.851 1434.68,-830.969"/>
<polygon fill="black" stroke="black" points="1436.6,-833.931 1444.09,-826.442 1433.56,-827.623 1436.6,-833.931"/>
</g>
<!-- cpufreq_notify_transition -->
<g id="node25" class="node"><title>cpufreq_notify_transition</title>
<ellipse fill="none" stroke="black" cx="1747" cy="-299" rx="100.983" ry="18"/>
<text text-anchor="middle" x="1747" y="-295.3" font-family="Times,serif" font-size="14.00">cpufreq_notify_transition</text>
</g>
<!-- cpufreq_freq_transition_end&#45;&gt;cpufreq_notify_transition -->
<g id="edge35" class="edge"><title>cpufreq_freq_transition_end&#45;&gt;cpufreq_notify_transition</title>
<path fill="none" stroke="black" d="M1572.38,-281.443C1597.1,-283.943 1623.84,-286.647 1648.75,-289.166"/>
<polygon fill="black" stroke="black" points="1648.64,-292.672 1658.94,-290.196 1649.34,-285.708 1648.64,-292.672"/>
</g>
<!-- cpufreq_freq_transition_begin&#45;&gt;cpufreq_notify_transition -->
<g id="edge20" class="edge"><title>cpufreq_freq_transition_begin&#45;&gt;cpufreq_notify_transition</title>
<path fill="none" stroke="black" d="M1576.53,-316.138C1600.12,-313.752 1625.33,-311.202 1648.91,-308.819"/>
<polygon fill="black" stroke="black" points="1649.3,-312.296 1658.9,-307.808 1648.6,-305.332 1649.3,-312.296"/>
</g>
<!-- handle_update -->
<g id="node18" class="node"><title>handle_update</title>
<ellipse fill="none" stroke="black" cx="683" cy="-218" rx="61.99" ry="18"/>
<text text-anchor="middle" x="683" y="-214.3" font-family="Times,serif" font-size="14.00">handle_update</text>
</g>
<!-- cpufreq_update_policy -->
<g id="node19" class="node"><title>cpufreq_update_policy</title>
<ellipse fill="none" stroke="black" cx="943" cy="-218" rx="91.784" ry="18"/>
<text text-anchor="middle" x="943" y="-214.3" font-family="Times,serif" font-size="14.00">cpufreq_update_policy</text>
</g>
<!-- handle_update&#45;&gt;cpufreq_update_policy -->
<g id="edge13" class="edge"><title>handle_update&#45;&gt;cpufreq_update_policy</title>
<path fill="none" stroke="black" d="M744.816,-218C773.573,-218 808.674,-218 841.248,-218"/>
<polygon fill="black" stroke="black" points="841.266,-221.5 851.266,-218 841.266,-214.5 841.266,-221.5"/>
</g>
<!-- cpufreq_update_policy&#45;&gt;cpufreq_out_of_sync -->
<g id="edge66" class="edge"><title>cpufreq_update_policy&#45;&gt;cpufreq_out_of_sync</title>
<path fill="none" stroke="black" d="M1005.65,-231.21C1042.16,-239.035 1088.54,-248.972 1126.37,-257.079"/>
<polygon fill="black" stroke="black" points="1125.78,-260.533 1136.29,-259.206 1127.25,-253.688 1125.78,-260.533"/>
</g>
<!-- cpufreq_update_policy&#45;&gt;cpufreq_cpu_get -->
<g id="edge65" class="edge"><title>cpufreq_update_policy&#45;&gt;cpufreq_cpu_get</title>
<path fill="none" stroke="black" d="M1005.3,-204.769C1019.54,-200.963 1034.47,-196.362 1048,-191 1088.72,-174.86 1132.36,-149.94 1161.62,-132.003"/>
<polygon fill="black" stroke="black" points="1163.56,-134.918 1170.22,-126.678 1159.88,-128.966 1163.56,-134.918"/>
</g>
<!-- cpufreq_update_policy&#45;&gt;cpufreq_set_policy -->
<g id="edge67" class="edge"><title>cpufreq_update_policy&#45;&gt;cpufreq_set_policy</title>
<path fill="none" stroke="black" d="M1022.43,-227.155C1032.14,-231.298 1041.08,-237.053 1048,-245 1138.52,-348.925 992.576,-449.868 1084,-553 1091.59,-561.566 1101.39,-567.652 1112.03,-571.938"/>
<polygon fill="black" stroke="black" points="1110.96,-575.272 1121.55,-575.258 1113.26,-568.662 1110.96,-575.272"/>
</g>
<!-- cpufreq_driver_target -->
<g id="node20" class="node"><title>cpufreq_driver_target</title>
<ellipse fill="none" stroke="black" cx="943" cy="-326" rx="87.1846" ry="18"/>
<text text-anchor="middle" x="943" y="-322.3" font-family="Times,serif" font-size="14.00">cpufreq_driver_target</text>
</g>
<!-- __cpufreq_driver_target -->
<g id="node21" class="node"><title>__cpufreq_driver_target</title>
<ellipse fill="none" stroke="black" cx="1197" cy="-326" rx="96.3833" ry="18"/>
<text text-anchor="middle" x="1197" y="-322.3" font-family="Times,serif" font-size="14.00">__cpufreq_driver_target</text>
</g>
<!-- cpufreq_driver_target&#45;&gt;__cpufreq_driver_target -->
<g id="edge14" class="edge"><title>cpufreq_driver_target&#45;&gt;__cpufreq_driver_target</title>
<path fill="none" stroke="black" d="M1030.37,-326C1049.75,-326 1070.52,-326 1090.58,-326"/>
<polygon fill="black" stroke="black" points="1090.68,-329.5 1100.68,-326 1090.68,-322.5 1090.68,-329.5"/>
</g>
<!-- __cpufreq_driver_target&#45;&gt;cpufreq_freq_transition_end -->
<g id="edge25" class="edge"><title>__cpufreq_driver_target&#45;&gt;cpufreq_freq_transition_end</title>
<path fill="none" stroke="black" d="M1264.47,-313.134C1304.01,-305.481 1354.46,-295.718 1396.28,-287.624"/>
<polygon fill="black" stroke="black" points="1397.01,-291.048 1406.16,-285.711 1395.68,-284.175 1397.01,-291.048"/>
</g>
<!-- __cpufreq_driver_target&#45;&gt;cpufreq_freq_transition_begin -->
<g id="edge24" class="edge"><title>__cpufreq_driver_target&#45;&gt;cpufreq_freq_transition_begin</title>
<path fill="none" stroke="black" d="M1293.24,-326C1311.43,-326 1330.75,-326 1349.77,-326"/>
<polygon fill="black" stroke="black" points="1349.98,-329.5 1359.98,-326 1349.98,-322.5 1349.98,-329.5"/>
</g>
<!-- cpufreq_register_governor -->
<g id="node22" class="node"><title>cpufreq_register_governor</title>
<ellipse fill="none" stroke="black" cx="1197" cy="-526" rx="104.782" ry="18"/>
<text text-anchor="middle" x="1197" y="-522.3" font-family="Times,serif" font-size="14.00">cpufreq_register_governor</text>
</g>
<!-- cpufreq_register_governor&#45;&gt;find_governor -->
<g id="edge15" class="edge"><title>cpufreq_register_governor&#45;&gt;find_governor</title>
<path fill="none" stroke="black" d="M1267.32,-512.582C1313.14,-503.715 1372.61,-492.204 1416.51,-483.708"/>
<polygon fill="black" stroke="black" points="1417.32,-487.117 1426.47,-481.78 1415.99,-480.244 1417.32,-487.117"/>
</g>
<!-- show_cpuinfo_cur_freq -->
<g id="node23" class="node"><title>show_cpuinfo_cur_freq</title>
<ellipse fill="none" stroke="black" cx="683" cy="-326" rx="94.7833" ry="18"/>
<text text-anchor="middle" x="683" y="-322.3" font-family="Times,serif" font-size="14.00">show_cpuinfo_cur_freq</text>
</g>
<!-- show_cpuinfo_cur_freq&#45;&gt;__cpufreq_get -->
<g id="edge16" class="edge"><title>show_cpuinfo_cur_freq&#45;&gt;__cpufreq_get</title>
<path fill="none" stroke="black" d="M747.444,-312.721C788.57,-304.113 841.804,-292.971 882.188,-284.519"/>
<polygon fill="black" stroke="black" points="883.093,-287.905 892.164,-282.431 881.659,-281.054 883.093,-287.905"/>
</g>
<!-- cpufreq_suspend -->
<g id="node24" class="node"><title>cpufreq_suspend</title>
<ellipse fill="none" stroke="black" cx="1197" cy="-1018" rx="70.3881" ry="18"/>
<text text-anchor="middle" x="1197" y="-1014.3" font-family="Times,serif" font-size="14.00">cpufreq_suspend</text>
</g>
<!-- cpufreq_suspend&#45;&gt;first_policy -->
<g id="edge18" class="edge"><title>cpufreq_suspend&#45;&gt;first_policy</title>
<path fill="none" stroke="black" d="M1263.06,-1011.7C1309.92,-1007.17 1372.62,-1001.1 1418.02,-996.708"/>
<polygon fill="black" stroke="black" points="1418.39,-1000.19 1428.01,-995.741 1417.72,-993.221 1418.39,-1000.19"/>
</g>
<!-- cpufreq_suspend&#45;&gt;__cpufreq_governor -->
<g id="edge19" class="edge"><title>cpufreq_suspend&#45;&gt;__cpufreq_governor</title>
<path fill="none" stroke="black" d="M1259.79,-1009.9C1276.85,-1005.89 1294.82,-999.914 1310,-991 1345.05,-970.411 1420.18,-880.535 1456.5,-835.67"/>
<polygon fill="black" stroke="black" points="1459.26,-837.825 1462.81,-827.844 1453.81,-833.43 1459.26,-837.825"/>
</g>
<!-- cpufreq_policy_free -->
<g id="node26" class="node"><title>cpufreq_policy_free</title>
<ellipse fill="none" stroke="black" cx="683" cy="-687" rx="81.7856" ry="18"/>
<text text-anchor="middle" x="683" y="-683.3" font-family="Times,serif" font-size="14.00">cpufreq_policy_free</text>
</g>
<!-- remove_cpu_dev_symlink -->
<g id="node27" class="node"><title>remove_cpu_dev_symlink</title>
<ellipse fill="none" stroke="black" cx="943" cy="-726" rx="104.782" ry="18"/>
<text text-anchor="middle" x="943" y="-722.3" font-family="Times,serif" font-size="14.00">remove_cpu_dev_symlink</text>
</g>
<!-- cpufreq_policy_free&#45;&gt;remove_cpu_dev_symlink -->
<g id="edge21" class="edge"><title>cpufreq_policy_free&#45;&gt;remove_cpu_dev_symlink</title>
<path fill="none" stroke="black" d="M751.113,-697.145C782.369,-701.87 819.978,-707.555 853.519,-712.625"/>
<polygon fill="black" stroke="black" points="853.375,-716.143 863.786,-714.177 854.421,-709.222 853.375,-716.143"/>
</g>
<!-- remove_boost_sysfs_file -->
<g id="node28" class="node"><title>remove_boost_sysfs_file</title>
<ellipse fill="none" stroke="black" cx="943" cy="-887" rx="98.5829" ry="18"/>
<text text-anchor="middle" x="943" y="-883.3" font-family="Times,serif" font-size="14.00">remove_boost_sysfs_file</text>
</g>
<!-- cpufreq_sysfs_remove_file -->
<g id="node29" class="node"><title>cpufreq_sysfs_remove_file</title>
<ellipse fill="none" stroke="black" cx="1197" cy="-856" rx="106.681" ry="18"/>
<text text-anchor="middle" x="1197" y="-852.3" font-family="Times,serif" font-size="14.00">cpufreq_sysfs_remove_file</text>
</g>
<!-- remove_boost_sysfs_file&#45;&gt;cpufreq_sysfs_remove_file -->
<g id="edge22" class="edge"><title>remove_boost_sysfs_file&#45;&gt;cpufreq_sysfs_remove_file</title>
<path fill="none" stroke="black" d="M1025.47,-876.978C1049.36,-874.04 1075.69,-870.8 1100.38,-867.763"/>
<polygon fill="black" stroke="black" points="1100.98,-871.216 1110.47,-866.521 1100.12,-864.268 1100.98,-871.216"/>
</g>
<!-- cpufreq_offline_prepare -->
<g id="node30" class="node"><title>cpufreq_offline_prepare</title>
<ellipse fill="none" stroke="black" cx="683" cy="-833" rx="96.3833" ry="18"/>
<text text-anchor="middle" x="683" y="-829.3" font-family="Times,serif" font-size="14.00">cpufreq_offline_prepare</text>
</g>
<!-- cpufreq_offline_prepare&#45;&gt;__cpufreq_governor -->
<g id="edge23" class="edge"><title>cpufreq_offline_prepare&#45;&gt;__cpufreq_governor</title>
<path fill="none" stroke="black" d="M778.082,-830.271C931.585,-825.819 1233.98,-817.049 1385.67,-812.649"/>
<polygon fill="black" stroke="black" points="1385.99,-816.141 1395.89,-812.353 1385.79,-809.144 1385.99,-816.141"/>
</g>
<!-- cpufreq_remove_dev -->
<g id="node31" class="node"><title>cpufreq_remove_dev</title>
<ellipse fill="none" stroke="black" cx="391" cy="-787" rx="85.5853" ry="18"/>
<text text-anchor="middle" x="391" y="-783.3" font-family="Times,serif" font-size="14.00">cpufreq_remove_dev</text>
</g>
<!-- cpufreq_remove_dev&#45;&gt;cpufreq_policy_free -->
<g id="edge29" class="edge"><title>cpufreq_remove_dev&#45;&gt;cpufreq_policy_free</title>
<path fill="none" stroke="black" d="M425.911,-770.496C460.121,-754.355 514.776,-729.94 564,-714 578.925,-709.167 595.179,-704.857 610.718,-701.176"/>
<polygon fill="black" stroke="black" points="611.848,-704.507 620.805,-698.848 610.274,-697.686 611.848,-704.507"/>
</g>
<!-- cpufreq_remove_dev&#45;&gt;remove_cpu_dev_symlink -->
<g id="edge27" class="edge"><title>cpufreq_remove_dev&#45;&gt;remove_cpu_dev_symlink</title>
<path fill="none" stroke="black" d="M476.272,-789.089C559.614,-789.752 690.489,-787.013 802,-768 831.057,-763.046 862.569,-753.94 888.326,-745.47"/>
<polygon fill="black" stroke="black" points="889.527,-748.759 897.899,-742.265 887.305,-742.121 889.527,-748.759"/>
</g>
<!-- cpufreq_remove_dev&#45;&gt;cpufreq_offline_prepare -->
<g id="edge28" class="edge"><title>cpufreq_remove_dev&#45;&gt;cpufreq_offline_prepare</title>
<path fill="none" stroke="black" d="M459.992,-797.785C501.539,-804.375 554.968,-812.85 599,-819.834"/>
<polygon fill="black" stroke="black" points="598.683,-823.328 609.108,-821.438 599.78,-816.414 598.683,-823.328"/>
</g>
<!-- cpufreq_offline_finish -->
<g id="node32" class="node"><title>cpufreq_offline_finish</title>
<ellipse fill="none" stroke="black" cx="683" cy="-741" rx="89.8845" ry="18"/>
<text text-anchor="middle" x="683" y="-737.3" font-family="Times,serif" font-size="14.00">cpufreq_offline_finish</text>
</g>
<!-- cpufreq_remove_dev&#45;&gt;cpufreq_offline_finish -->
<g id="edge26" class="edge"><title>cpufreq_remove_dev&#45;&gt;cpufreq_offline_finish</title>
<path fill="none" stroke="black" d="M459.992,-776.215C502.56,-769.463 557.602,-760.732 602.23,-753.653"/>
<polygon fill="black" stroke="black" points="602.838,-757.101 612.167,-752.077 601.742,-750.187 602.838,-757.101"/>
</g>
<!-- cpufreq_offline_finish&#45;&gt;__cpufreq_governor -->
<g id="edge39" class="edge"><title>cpufreq_offline_finish&#45;&gt;__cpufreq_governor</title>
<path fill="none" stroke="black" d="M765.508,-748.092C916.091,-761.195 1236.54,-789.078 1390.67,-802.488"/>
<polygon fill="black" stroke="black" points="1390.76,-806.009 1401.03,-803.39 1391.37,-799.036 1390.76,-806.009"/>
</g>
<!-- cpufreq_enable_boost_support -->
<g id="node33" class="node"><title>cpufreq_enable_boost_support</title>
<ellipse fill="none" stroke="black" cx="683" cy="-995" rx="118.879" ry="18"/>
<text text-anchor="middle" x="683" y="-991.3" font-family="Times,serif" font-size="14.00">cpufreq_enable_boost_support</text>
</g>
<!-- create_boost_sysfs_file -->
<g id="node34" class="node"><title>create_boost_sysfs_file</title>
<ellipse fill="none" stroke="black" cx="943" cy="-979" rx="92.8835" ry="18"/>
<text text-anchor="middle" x="943" y="-975.3" font-family="Times,serif" font-size="14.00">create_boost_sysfs_file</text>
</g>
<!-- cpufreq_enable_boost_support&#45;&gt;create_boost_sysfs_file -->
<g id="edge30" class="edge"><title>cpufreq_enable_boost_support&#45;&gt;create_boost_sysfs_file</title>
<path fill="none" stroke="black" d="M793.415,-988.215C810.248,-987.171 827.536,-986.099 844.097,-985.071"/>
<polygon fill="black" stroke="black" points="844.54,-988.551 854.304,-984.438 844.107,-981.564 844.54,-988.551"/>
</g>
<!-- cpufreq_sysfs_create_file -->
<g id="node42" class="node"><title>cpufreq_sysfs_create_file</title>
<ellipse fill="none" stroke="black" cx="1197" cy="-1180" rx="100.983" ry="18"/>
<text text-anchor="middle" x="1197" y="-1176.3" font-family="Times,serif" font-size="14.00">cpufreq_sysfs_create_file</text>
</g>
<!-- create_boost_sysfs_file&#45;&gt;cpufreq_sysfs_create_file -->
<g id="edge37" class="edge"><title>create_boost_sysfs_file&#45;&gt;cpufreq_sysfs_create_file</title>
<path fill="none" stroke="black" d="M953.181,-997.036C972.337,-1032.75 1020.14,-1112.53 1084,-1153 1091.75,-1157.91 1100.33,-1161.93 1109.18,-1165.22"/>
<polygon fill="black" stroke="black" points="1108.27,-1168.61 1118.86,-1168.51 1110.52,-1161.98 1108.27,-1168.61"/>
</g>
<!-- cpufreq_boost_set_sw -->
<g id="node43" class="node"><title>cpufreq_boost_set_sw</title>
<ellipse fill="none" stroke="black" cx="1197" cy="-964" rx="89.0842" ry="18"/>
<text text-anchor="middle" x="1197" y="-960.3" font-family="Times,serif" font-size="14.00">cpufreq_boost_set_sw</text>
</g>
<!-- create_boost_sysfs_file&#45;&gt;cpufreq_boost_set_sw -->
<g id="edge38" class="edge"><title>create_boost_sysfs_file&#45;&gt;cpufreq_boost_set_sw</title>
<path fill="none" stroke="black" stroke-dasharray="1,5" d="M1032.14,-973.754C1054.42,-972.428 1078.43,-970.998 1101.03,-969.653"/>
<polygon fill="black" stroke="black" points="1101.53,-973.13 1111.3,-969.041 1101.11,-966.142 1101.53,-973.13"/>
</g>
<!-- cpufreq_boost_trigger_state -->
<g id="node35" class="node"><title>cpufreq_boost_trigger_state</title>
<ellipse fill="none" stroke="black" cx="109" cy="-892" rx="109.381" ry="18"/>
<text text-anchor="middle" x="109" y="-888.3" font-family="Times,serif" font-size="14.00">cpufreq_boost_trigger_state</text>
</g>
<!-- cpufreq_boost_trigger_state.part.17 -->
<g id="node36" class="node"><title>cpufreq_boost_trigger_state.part.17</title>
<ellipse fill="none" stroke="black" cx="391" cy="-879" rx="136.476" ry="18"/>
<text text-anchor="middle" x="391" y="-875.3" font-family="Times,serif" font-size="14.00">cpufreq_boost_trigger_state.part.17</text>
</g>
<!-- cpufreq_boost_trigger_state&#45;&gt;cpufreq_boost_trigger_state.part.17 -->
<g id="edge31" class="edge"><title>cpufreq_boost_trigger_state&#45;&gt;cpufreq_boost_trigger_state.part.17</title>
<path fill="none" stroke="black" d="M214.262,-887.159C226.53,-886.59 239.191,-886.002 251.833,-885.415"/>
<polygon fill="black" stroke="black" points="252.132,-888.905 261.958,-884.945 251.807,-881.912 252.132,-888.905"/>
</g>
<!-- cpufreq_add_dev -->
<g id="node37" class="node"><title>cpufreq_add_dev</title>
<ellipse fill="none" stroke="black" cx="109" cy="-314" rx="71.4873" ry="18"/>
<text text-anchor="middle" x="109" y="-310.3" font-family="Times,serif" font-size="14.00">cpufreq_add_dev</text>
</g>
<!-- add_cpu_dev_symlink -->
<g id="node38" class="node"><title>add_cpu_dev_symlink</title>
<ellipse fill="none" stroke="black" cx="683" cy="-164" rx="90.9839" ry="18"/>
<text text-anchor="middle" x="683" y="-160.3" font-family="Times,serif" font-size="14.00">add_cpu_dev_symlink</text>
</g>
<!-- cpufreq_add_dev&#45;&gt;add_cpu_dev_symlink -->
<g id="edge32" class="edge"><title>cpufreq_add_dev&#45;&gt;add_cpu_dev_symlink</title>
<path fill="none" stroke="black" d="M156.897,-300.635C239.096,-277.358 414.657,-228.301 564,-191 579.304,-187.178 595.777,-183.276 611.419,-179.669"/>
<polygon fill="black" stroke="black" points="612.592,-182.991 621.557,-177.346 611.028,-176.168 612.592,-182.991"/>
</g>
<!-- cpufreq_online -->
<g id="node39" class="node"><title>cpufreq_online</title>
<ellipse fill="none" stroke="black" cx="391" cy="-445" rx="63.8893" ry="18"/>
<text text-anchor="middle" x="391" y="-441.3" font-family="Times,serif" font-size="14.00">cpufreq_online</text>
</g>
<!-- cpufreq_add_dev&#45;&gt;cpufreq_online -->
<g id="edge33" class="edge"><title>cpufreq_add_dev&#45;&gt;cpufreq_online</title>
<path fill="none" stroke="black" d="M143.775,-329.802C194.924,-353.732 291.964,-399.133 347.728,-425.223"/>
<polygon fill="black" stroke="black" points="346.434,-428.482 356.975,-429.549 349.401,-422.141 346.434,-428.482"/>
</g>
<!-- cpufreq_online&#45;&gt;cpufreq_init_policy -->
<g id="edge46" class="edge"><title>cpufreq_online&#45;&gt;cpufreq_init_policy</title>
<path fill="none" stroke="black" d="M454.023,-448.045C551.962,-452.853 742.762,-462.219 854.561,-467.708"/>
<polygon fill="black" stroke="black" points="854.635,-471.215 864.795,-468.21 854.979,-464.224 854.635,-471.215"/>
</g>
<!-- cpufreq_online&#45;&gt;__cpufreq_governor -->
<g id="edge45" class="edge"><title>cpufreq_online&#45;&gt;__cpufreq_governor</title>
<path fill="none" stroke="black" d="M419.075,-461.385C486.994,-501.747 671.128,-606.622 838,-661 928.182,-690.387 955.357,-678.662 1048,-699 1180.86,-728.167 1334.84,-769.995 1417.39,-793.081"/>
<polygon fill="black" stroke="black" points="1416.52,-796.472 1427.09,-795.801 1418.41,-789.732 1416.52,-796.472"/>
</g>
<!-- cpufreq_online&#45;&gt;handle_update -->
<g id="edge47" class="edge"><title>cpufreq_online&#45;&gt;handle_update</title>
<path fill="none" stroke="black" stroke-dasharray="1,5" d="M411.473,-427.671C439.262,-402.369 491.019,-353.078 528,-305 546.96,-280.35 538.829,-263.263 564,-245 578.148,-234.735 595.559,-228.29 612.619,-224.266"/>
<polygon fill="black" stroke="black" points="613.532,-227.651 622.596,-222.167 612.09,-220.801 613.532,-227.651"/>
</g>
<!-- cpufreq_online&#45;&gt;__cpufreq_driver_target -->
<g id="edge44" class="edge"><title>cpufreq_online&#45;&gt;__cpufreq_driver_target</title>
<path fill="none" stroke="black" d="M454.832,-444.867C596.666,-444.001 937.862,-438.589 1048,-407 1090.74,-394.742 1134.83,-368.541 1163.64,-349.243"/>
<polygon fill="black" stroke="black" points="1165.78,-352.021 1172.08,-343.498 1161.84,-346.236 1165.78,-352.021"/>
</g>
<!-- cpufreq_online&#45;&gt;cpufreq_policy_free -->
<g id="edge48" class="edge"><title>cpufreq_online&#45;&gt;cpufreq_policy_free</title>
<path fill="none" stroke="black" d="M401.396,-462.785C423.804,-503.417 484.492,-603.511 564,-655 576.522,-663.109 591.062,-669.177 605.568,-673.714"/>
<polygon fill="black" stroke="black" points="605.001,-677.194 615.58,-676.617 606.95,-670.471 605.001,-677.194"/>
</g>
<!-- cpufreq_online&#45;&gt;add_cpu_dev_symlink -->
<g id="edge43" class="edge"><title>cpufreq_online&#45;&gt;add_cpu_dev_symlink</title>
<path fill="none" stroke="black" d="M413.821,-428.148C443.704,-403.973 497.159,-356.638 528,-305 555.244,-259.384 524.94,-227.02 564,-191 571.474,-184.108 580.336,-178.857 589.796,-174.872"/>
<polygon fill="black" stroke="black" points="591.27,-178.058 599.426,-171.296 588.833,-171.496 591.27,-178.058"/>
</g>
<!-- store_scaling_max_freq -->
<g id="node40" class="node"><title>store_scaling_max_freq</title>
<ellipse fill="none" stroke="black" cx="943" cy="-634" rx="95.5831" ry="18"/>
<text text-anchor="middle" x="943" y="-630.3" font-family="Times,serif" font-size="14.00">store_scaling_max_freq</text>
</g>
<!-- store_scaling_max_freq&#45;&gt;cpufreq_set_policy -->
<g id="edge34" class="edge"><title>store_scaling_max_freq&#45;&gt;cpufreq_set_policy</title>
<path fill="none" stroke="black" d="M1006.94,-620.513C1044.14,-612.541 1091.23,-602.451 1129.1,-594.335"/>
<polygon fill="black" stroke="black" points="1129.98,-597.727 1139.02,-592.21 1128.51,-590.883 1129.98,-597.727"/>
</g>
<!-- cpufreq_unregister_driver -->
<g id="node41" class="node"><title>cpufreq_unregister_driver</title>
<ellipse fill="none" stroke="black" cx="683" cy="-887" rx="102.882" ry="18"/>
<text text-anchor="middle" x="683" y="-883.3" font-family="Times,serif" font-size="14.00">cpufreq_unregister_driver</text>
</g>
<!-- cpufreq_unregister_driver&#45;&gt;remove_boost_sysfs_file -->
<g id="edge36" class="edge"><title>cpufreq_unregister_driver&#45;&gt;remove_boost_sysfs_file</title>
<path fill="none" stroke="black" d="M785.968,-887C801.682,-887 817.956,-887 833.8,-887"/>
<polygon fill="black" stroke="black" points="834.139,-890.5 844.139,-887 834.139,-883.5 834.139,-890.5"/>
</g>
<!-- cpufreq_sysfs_create_file&#45;&gt;cpufreq_get_global_kobject.part.4 -->
<g id="edge49" class="edge"><title>cpufreq_sysfs_create_file&#45;&gt;cpufreq_get_global_kobject.part.4</title>
<path fill="none" stroke="black" d="M1285.89,-1171.49C1309.34,-1169.23 1335.05,-1166.74 1359.79,-1164.34"/>
<polygon fill="black" stroke="black" points="1360.34,-1167.81 1369.96,-1163.36 1359.67,-1160.84 1360.34,-1167.81"/>
</g>
<!-- cpufreq_boost_set_sw&#45;&gt;first_policy -->
<g id="edge53" class="edge"><title>cpufreq_boost_set_sw&#45;&gt;first_policy</title>
<path fill="none" stroke="black" d="M1277.58,-971.701C1322.42,-976.04 1377.46,-981.367 1418.35,-985.324"/>
<polygon fill="black" stroke="black" points="1418.13,-988.819 1428.42,-986.299 1418.81,-981.852 1418.13,-988.819"/>
</g>
<!-- cpufreq_boost_set_sw&#45;&gt;__cpufreq_governor -->
<g id="edge54" class="edge"><title>cpufreq_boost_set_sw&#45;&gt;__cpufreq_governor</title>
<path fill="none" stroke="black" d="M1265.59,-952.473C1280.62,-948.616 1296.18,-943.564 1310,-937 1365.81,-910.495 1420.98,-863.357 1451.86,-834.565"/>
<polygon fill="black" stroke="black" points="1454.3,-837.073 1459.17,-827.664 1449.49,-831.983 1454.3,-837.073"/>
</g>
<!-- show_related_cpus -->
<g id="node44" class="node"><title>show_related_cpus</title>
<ellipse fill="none" stroke="black" cx="109" cy="-1000" rx="77.9862" ry="18"/>
<text text-anchor="middle" x="109" y="-996.3" font-family="Times,serif" font-size="14.00">show_related_cpus</text>
</g>
<!-- cpufreq_show_cpus -->
<g id="node45" class="node"><title>cpufreq_show_cpus</title>
<ellipse fill="none" stroke="black" cx="391" cy="-960" rx="81.4863" ry="18"/>
<text text-anchor="middle" x="391" y="-956.3" font-family="Times,serif" font-size="14.00">cpufreq_show_cpus</text>
</g>
<!-- show_related_cpus&#45;&gt;cpufreq_show_cpus -->
<g id="edge40" class="edge"><title>show_related_cpus&#45;&gt;cpufreq_show_cpus</title>
<path fill="none" stroke="black" d="M175.648,-990.622C216.5,-984.786 269.252,-977.25 312.201,-971.114"/>
<polygon fill="black" stroke="black" points="312.926,-974.546 322.33,-969.667 311.936,-967.617 312.926,-974.546"/>
</g>
<!-- store_scaling_governor -->
<g id="node46" class="node"><title>store_scaling_governor</title>
<ellipse fill="none" stroke="black" cx="943" cy="-526" rx="92.8835" ry="18"/>
<text text-anchor="middle" x="943" y="-522.3" font-family="Times,serif" font-size="14.00">store_scaling_governor</text>
</g>
<!-- store_scaling_governor&#45;&gt;cpufreq_set_policy -->
<g id="edge42" class="edge"><title>store_scaling_governor&#45;&gt;cpufreq_set_policy</title>
<path fill="none" stroke="black" d="M1005.97,-539.279C1043.29,-547.277 1090.83,-557.463 1129.02,-565.646"/>
<polygon fill="black" stroke="black" points="1128.5,-569.116 1139.02,-567.789 1129.97,-562.271 1128.5,-569.116"/>
</g>
<!-- store_scaling_governor&#45;&gt;cpufreq_parse_governor -->
<g id="edge41" class="edge"><title>store_scaling_governor&#45;&gt;cpufreq_parse_governor</title>
<path fill="none" stroke="black" d="M1005.97,-512.721C1041.27,-505.157 1085.7,-495.635 1122.72,-487.702"/>
<polygon fill="black" stroke="black" points="1123.91,-491.027 1132.96,-485.509 1122.45,-484.182 1123.91,-491.027"/>
</g>
<!-- cpufreq_get -->
<g id="node47" class="node"><title>cpufreq_get</title>
<ellipse fill="none" stroke="black" cx="683" cy="-272" rx="52.7911" ry="18"/>
<text text-anchor="middle" x="683" y="-268.3" font-family="Times,serif" font-size="14.00">cpufreq_get</text>
</g>
<!-- cpufreq_get&#45;&gt;__cpufreq_get -->
<g id="edge50" class="edge"><title>cpufreq_get&#45;&gt;__cpufreq_get</title>
<path fill="none" stroke="black" d="M735.9,-272C774.725,-272 828.267,-272 871.048,-272"/>
<polygon fill="black" stroke="black" points="871.116,-275.5 881.116,-272 871.116,-268.5 871.116,-275.5"/>
</g>
<!-- cpufreq_get&#45;&gt;cpufreq_cpu_get -->
<g id="edge51" class="edge"><title>cpufreq_get&#45;&gt;cpufreq_cpu_get</title>
<path fill="none" stroke="black" d="M735.855,-272.122C758.977,-269.457 784.816,-262.292 802,-245 853.99,-192.683 780.467,-129.151 838,-83 882.344,-47.4286 1045.26,-76.2583 1135.25,-95.7719"/>
<polygon fill="black" stroke="black" points="1134.54,-99.1984 1145.06,-97.9233 1136.04,-92.3611 1134.54,-99.1984"/>
</g>
<!-- store_boost -->
<g id="node48" class="node"><title>store_boost</title>
<ellipse fill="none" stroke="black" cx="109" cy="-838" rx="51.1914" ry="18"/>
<text text-anchor="middle" x="109" y="-834.3" font-family="Times,serif" font-size="14.00">store_boost</text>
</g>
<!-- store_boost&#45;&gt;cpufreq_boost_trigger_state.part.17 -->
<g id="edge55" class="edge"><title>store_boost&#45;&gt;cpufreq_boost_trigger_state.part.17</title>
<path fill="none" stroke="black" d="M156.551,-844.816C192.477,-850.077 243.513,-857.55 288.708,-864.168"/>
<polygon fill="black" stroke="black" points="288.451,-867.668 298.853,-865.653 289.465,-860.741 288.451,-867.668"/>
</g>
<!-- cpufreq_quick_get -->
<g id="node49" class="node"><title>cpufreq_quick_get</title>
<ellipse fill="none" stroke="black" cx="943" cy="-110" rx="76.8869" ry="18"/>
<text text-anchor="middle" x="943" y="-106.3" font-family="Times,serif" font-size="14.00">cpufreq_quick_get</text>
</g>
<!-- cpufreq_quick_get&#45;&gt;cpufreq_cpu_get -->
<g id="edge56" class="edge"><title>cpufreq_quick_get&#45;&gt;cpufreq_cpu_get</title>
<path fill="none" stroke="black" d="M1019.95,-110C1050.55,-110 1085.85,-110 1116.77,-110"/>
<polygon fill="black" stroke="black" points="1117.07,-113.5 1127.07,-110 1117.07,-106.5 1117.07,-113.5"/>
</g>
<!-- cpufreq_cpu_callback -->
<g id="node50" class="node"><title>cpufreq_cpu_callback</title>
<ellipse fill="none" stroke="black" cx="109" cy="-741" rx="88.2844" ry="18"/>
<text text-anchor="middle" x="109" y="-737.3" font-family="Times,serif" font-size="14.00">cpufreq_cpu_callback</text>
</g>
<!-- cpufreq_cpu_callback&#45;&gt;cpufreq_offline_prepare -->
<g id="edge57" class="edge"><title>cpufreq_cpu_callback&#45;&gt;cpufreq_offline_prepare</title>
<path fill="none" stroke="black" d="M135.709,-758.309C163.515,-775.975 209.811,-802.397 254,-814 364.201,-842.936 495.767,-844.046 583.67,-840.27"/>
<polygon fill="black" stroke="black" points="584.073,-843.755 593.902,-839.8 583.752,-836.762 584.073,-843.755"/>
</g>
<!-- cpufreq_cpu_callback&#45;&gt;cpufreq_offline_finish -->
<g id="edge59" class="edge"><title>cpufreq_cpu_callback&#45;&gt;cpufreq_offline_finish</title>
<path fill="none" stroke="black" d="M197.497,-741C301.335,-741 474.061,-741 582.783,-741"/>
<polygon fill="black" stroke="black" points="583.1,-744.5 593.1,-741 583.1,-737.5 583.1,-744.5"/>
</g>
<!-- cpufreq_cpu_callback&#45;&gt;cpufreq_online -->
<g id="edge58" class="edge"><title>cpufreq_cpu_callback&#45;&gt;cpufreq_online</title>
<path fill="none" stroke="black" d="M127.094,-722.929C175.16,-672.116 311.576,-527.905 366.581,-469.757"/>
<polygon fill="black" stroke="black" points="369.153,-472.131 373.483,-462.461 364.068,-467.321 369.153,-472.131"/>
</g>
<!-- cpufreq_unregister_governor -->
<g id="node51" class="node"><title>cpufreq_unregister_governor</title>
<ellipse fill="none" stroke="black" cx="1197" cy="-1072" rx="113.18" ry="18"/>
<text text-anchor="middle" x="1197" y="-1068.3" font-family="Times,serif" font-size="14.00">cpufreq_unregister_governor</text>
</g>
<!-- cpufreq_unregister_governor&#45;&gt;first_policy -->
<g id="edge60" class="edge"><title>cpufreq_unregister_governor&#45;&gt;first_policy</title>
<path fill="none" stroke="black" d="M1262.77,-1057.27C1278.3,-1053.5 1294.79,-1049.29 1310,-1045 1351.38,-1033.34 1397.86,-1018.13 1431.27,-1006.83"/>
<polygon fill="black" stroke="black" points="1432.41,-1010.13 1440.76,-1003.6 1430.16,-1003.51 1432.41,-1010.13"/>
</g>
<!-- cpufreq_generic_suspend -->
<g id="node52" class="node"><title>cpufreq_generic_suspend</title>
<ellipse fill="none" stroke="black" cx="943" cy="-380" rx="100.983" ry="18"/>
<text text-anchor="middle" x="943" y="-376.3" font-family="Times,serif" font-size="14.00">cpufreq_generic_suspend</text>
</g>
<!-- cpufreq_generic_suspend&#45;&gt;__cpufreq_driver_target -->
<g id="edge61" class="edge"><title>cpufreq_generic_suspend&#45;&gt;__cpufreq_driver_target</title>
<path fill="none" stroke="black" d="M1008.24,-366.234C1043.16,-358.75 1086.5,-349.465 1122.73,-341.701"/>
<polygon fill="black" stroke="black" points="1123.7,-345.072 1132.75,-339.554 1122.24,-338.227 1123.7,-345.072"/>
</g>
<!-- show_affected_cpus -->
<g id="node53" class="node"><title>show_affected_cpus</title>
<ellipse fill="none" stroke="black" cx="109" cy="-946" rx="82.5854" ry="18"/>
<text text-anchor="middle" x="109" y="-942.3" font-family="Times,serif" font-size="14.00">show_affected_cpus</text>
</g>
<!-- show_affected_cpus&#45;&gt;cpufreq_show_cpus -->
<g id="edge62" class="edge"><title>show_affected_cpus&#45;&gt;cpufreq_show_cpus</title>
<path fill="none" stroke="black" d="M189.862,-949.993C224.582,-951.729 265.395,-953.77 301.077,-955.554"/>
<polygon fill="black" stroke="black" points="301.321,-959.07 311.484,-956.074 301.671,-952.079 301.321,-959.07"/>
</g>
<!-- cpufreq_register_driver -->
<g id="node54" class="node"><title>cpufreq_register_driver</title>
<ellipse fill="none" stroke="black" cx="683" cy="-941" rx="93.6835" ry="18"/>
<text text-anchor="middle" x="683" y="-937.3" font-family="Times,serif" font-size="14.00">cpufreq_register_driver</text>
</g>
<!-- cpufreq_register_driver&#45;&gt;remove_boost_sysfs_file -->
<g id="edge63" class="edge"><title>cpufreq_register_driver&#45;&gt;remove_boost_sysfs_file</title>
<path fill="none" stroke="black" d="M747.114,-927.79C783.404,-920.195 829.203,-910.609 867.283,-902.638"/>
<polygon fill="black" stroke="black" points="868.224,-906.017 877.295,-900.543 866.79,-899.166 868.224,-906.017"/>
</g>
<!-- cpufreq_register_driver&#45;&gt;create_boost_sysfs_file -->
<g id="edge64" class="edge"><title>cpufreq_register_driver&#45;&gt;create_boost_sysfs_file</title>
<path fill="none" stroke="black" d="M757.932,-951.889C789.374,-956.52 826.189,-961.943 858.598,-966.716"/>
<polygon fill="black" stroke="black" points="858.1,-970.18 868.503,-968.175 859.12,-963.255 858.1,-970.18"/>
</g>
</g>
</svg>
